<?xml version="1.0" encoding="UTF-8" standalone="no"?>
<!DOCTYPE svg PUBLIC "-//W3C//DTD SVG 1.1//EN"
 "http://www.w3.org/Graphics/SVG/1.1/DTD/svg11.dtd">
<!-- Generated by graphviz version 2.43.0 (0)
 -->
<!-- Title: device_handler.h Pages: 1 -->
<svg width="589pt" height="84pt"
 viewBox="0.00 0.00 589.00 84.00" xmlns="http://www.w3.org/2000/svg" xmlns:xlink="http://www.w3.org/1999/xlink">
<g id="graph0" class="graph" transform="scale(1 1) rotate(0) translate(4 80)">
<title>device_handler.h</title>
<polygon fill="white" stroke="transparent" points="-4,4 -4,-80 585,-80 585,4 -4,4"/>
<!-- Node1 -->
<g id="node1" class="node">
<title>Node1</title>
<g id="a_node1"><a xlink:title=" ">
<polygon fill="#bfbfbf" stroke="black" points="272.5,-56.5 272.5,-75.5 361.5,-75.5 361.5,-56.5 272.5,-56.5"/>
<text text-anchor="middle" x="317" y="-63.5" font-family="Helvetica,sans-Serif" font-size="10.00">device_handler.h</text>
</a>
</g>
</g>
<!-- Node2 -->
<g id="node2" class="node">
<title>Node2</title>
<g id="a_node2"><a xlink:title=" ">
<polygon fill="white" stroke="#bfbfbf" points="0,-0.5 0,-19.5 68,-19.5 68,-0.5 0,-0.5"/>
<text text-anchor="middle" x="34" y="-7.5" font-family="Helvetica,sans-Serif" font-size="10.00">LimeSuite.h</text>
</a>
</g>
</g>
<!-- Node1&#45;&gt;Node2 -->
<g id="edge1" class="edge">
<title>Node1&#45;&gt;Node2</title>
<path fill="none" stroke="midnightblue" d="M272.27,-56.9C226.1,-48.48 151.72,-34.73 78.16,-20.2"/>
<polygon fill="midnightblue" stroke="midnightblue" points="78.74,-16.75 68.25,-18.24 77.38,-23.61 78.74,-16.75"/>
</g>
<!-- Node3 -->
<g id="node3" class="node">
<title>Node3</title>
<g id="a_node3"><a xlink:title=" ">
<polygon fill="white" stroke="#bfbfbf" points="86.5,-0.5 86.5,-19.5 149.5,-19.5 149.5,-0.5 86.5,-0.5"/>
<text text-anchor="middle" x="118" y="-7.5" font-family="Helvetica,sans-Serif" font-size="10.00">limeRFE.h</text>
</a>
</g>
</g>
<!-- Node1&#45;&gt;Node3 -->
<g id="edge2" class="edge">
<title>Node1&#45;&gt;Node3</title>
<path fill="none" stroke="midnightblue" d="M285.47,-56.44C251.41,-47.2 196.99,-32.44 159.48,-22.26"/>
<polygon fill="midnightblue" stroke="midnightblue" points="159.95,-18.76 149.38,-19.52 158.12,-25.51 159.95,-18.76"/>
</g>
<!-- Node4 -->
<g id="node4" class="node">
<title>Node4</title>
<g id="a_node4"><a xlink:title=" ">
<polygon fill="white" stroke="#bfbfbf" points="168,-0.5 168,-19.5 212,-19.5 212,-0.5 168,-0.5"/>
<text text-anchor="middle" x="190" y="-7.5" font-family="Helvetica,sans-Serif" font-size="10.00">cmath</text>
</a>
</g>
</g>
<!-- Node1&#45;&gt;Node4 -->
<g id="edge3" class="edge">
<title>Node1&#45;&gt;Node4</title>
<path fill="none" stroke="midnightblue" d="M296.88,-56.44C275.98,-47.56 243.07,-33.56 219.28,-23.45"/>
<polygon fill="midnightblue" stroke="midnightblue" points="220.6,-20.21 210.03,-19.52 217.86,-26.65 220.6,-20.21"/>
</g>
<!-- Node5 -->
<g id="node5" class="node">
<title>Node5</title>
<g id="a_node5"><a xlink:title=" ">
<polygon fill="white" stroke="#bfbfbf" points="230,-0.5 230,-19.5 284,-19.5 284,-0.5 230,-0.5"/>
<text text-anchor="middle" x="257" y="-7.5" font-family="Helvetica,sans-Serif" font-size="10.00">iostream</text>
</a>
</g>
</g>
<!-- Node1&#45;&gt;Node5 -->
<g id="edge4" class="edge">
<title>Node1&#45;&gt;Node5</title>
<path fill="none" stroke="midnightblue" d="M307.36,-56.32C298.49,-48.34 285.13,-36.31 274.39,-26.65"/>
<polygon fill="midnightblue" stroke="midnightblue" points="276.59,-23.92 266.82,-19.83 271.91,-29.13 276.59,-23.92"/>
</g>
<!-- Node6 -->
<g id="node6" class="node">
<title>Node6</title>
<g id="a_node6"><a xlink:title=" ">
<polygon fill="white" stroke="#bfbfbf" points="302.5,-0.5 302.5,-19.5 331.5,-19.5 331.5,-0.5 302.5,-0.5"/>
<text text-anchor="middle" x="317" y="-7.5" font-family="Helvetica,sans-Serif" font-size="10.00">list</text>
</a>
</g>
</g>
<!-- Node1&#45;&gt;Node6 -->
<g id="edge5" class="edge">
<title>Node1&#45;&gt;Node6</title>
<path fill="none" stroke="midnightblue" d="M317,-56.08C317,-49.01 317,-38.86 317,-29.99"/>
<polygon fill="midnightblue" stroke="midnightblue" points="320.5,-29.75 317,-19.75 313.5,-29.75 320.5,-29.75"/>
</g>
<!-- Node7 -->
<g id="node7" class="node">
<title>Node7</title>
<g id="a_node7"><a xlink:title=" ">
<polygon fill="white" stroke="#bfbfbf" points="349.5,-0.5 349.5,-19.5 396.5,-19.5 396.5,-0.5 349.5,-0.5"/>
<text text-anchor="middle" x="373" y="-7.5" font-family="Helvetica,sans-Serif" font-size="10.00">math.h</text>
</a>
</g>
</g>
<!-- Node1&#45;&gt;Node7 -->
<g id="edge6" class="edge">
<title>Node1&#45;&gt;Node7</title>
<path fill="none" stroke="midnightblue" d="M326,-56.32C334.19,-48.42 346.51,-36.55 356.47,-26.94"/>
<polygon fill="midnightblue" stroke="midnightblue" points="359.07,-29.29 363.84,-19.83 354.21,-24.26 359.07,-29.29"/>
</g>
<!-- Node8 -->
<g id="node8" class="node">
<title>Node8</title>
<g id="a_node8"><a xlink:title=" ">
<polygon fill="white" stroke="#bfbfbf" points="415,-0.5 415,-19.5 459,-19.5 459,-0.5 415,-0.5"/>
<text text-anchor="middle" x="437" y="-7.5" font-family="Helvetica,sans-Serif" font-size="10.00">mutex</text>
</a>
</g>
</g>
<!-- Node1&#45;&gt;Node8 -->
<g id="edge7" class="edge">
<title>Node1&#45;&gt;Node8</title>
<path fill="none" stroke="midnightblue" d="M336.01,-56.44C355.59,-47.64 386.31,-33.81 408.73,-23.72"/>
<polygon fill="midnightblue" stroke="midnightblue" points="410.39,-26.81 418.07,-19.52 407.52,-20.43 410.39,-26.81"/>
</g>
<!-- Node9 -->
<g id="node9" class="node">
<title>Node9</title>
<g id="a_node9"><a xlink:title=" ">
<polygon fill="white" stroke="#bfbfbf" points="477.5,-0.5 477.5,-19.5 518.5,-19.5 518.5,-0.5 477.5,-0.5"/>
<text text-anchor="middle" x="498" y="-7.5" font-family="Helvetica,sans-Serif" font-size="10.00">string</text>
</a>
</g>
</g>
<!-- Node1&#45;&gt;Node9 -->
<g id="edge8" class="edge">
<title>Node1&#45;&gt;Node9</title>
<path fill="none" stroke="midnightblue" d="M345.67,-56.47C374.15,-48 419.32,-34.55 467.64,-20.1"/>
<polygon fill="midnightblue" stroke="midnightblue" points="468.77,-23.42 477.34,-17.2 466.76,-16.71 468.77,-23.42"/>
</g>
<!-- Node10 -->
<g id="node10" class="node">
<title>Node10</title>
<g id="a_node10"><a xlink:title=" ">
<polygon fill="white" stroke="#bfbfbf" points="537,-0.5 537,-19.5 581,-19.5 581,-0.5 537,-0.5"/>
<text text-anchor="middle" x="559" y="-7.5" font-family="Helvetica,sans-Serif" font-size="10.00">vector</text>
</a>
</g>
</g>
<!-- Node1&#45;&gt;Node10 -->
<g id="edge9" class="edge">
<title>Node1&#45;&gt;Node10</title>
<path fill="none" stroke="midnightblue" d="M361.67,-56.45C402.35,-48.44 464.28,-35.72 526.69,-20.2"/>
<polygon fill="midnightblue" stroke="midnightblue" points="527.85,-23.51 536.7,-17.68 526.15,-16.72 527.85,-23.51"/>
</g>
</g>
</svg>
