<?xml version="1.0" encoding="UTF-8" standalone="no"?>
<!DOCTYPE svg PUBLIC "-//W3C//DTD SVG 1.1//EN"
 "http://www.w3.org/Graphics/SVG/1.1/DTD/svg11.dtd">
<!-- Generated by graphviz version 2.43.0 (0)
 -->
<!-- Title: lib Pages: 1 -->
<svg width="150pt" height="148pt"
 viewBox="0.00 0.00 150.00 148.00" xmlns="http://www.w3.org/2000/svg" xmlns:xlink="http://www.w3.org/1999/xlink">
<g id="graph0" class="graph" transform="scale(1 1) rotate(0) translate(4 144)">
<title>lib</title>
<polygon fill="white" stroke="transparent" points="-4,4 -4,-144 146,-144 146,4 -4,4"/>
<g id="clust1" class="cluster">
<title>clusterdir_97aefd0d527b934f1d99a682da8fe6a9</title>
<g id="a_clust1"><a xlink:href="dir_97aefd0d527b934f1d99a682da8fe6a9.html" target="_top">
<polygon fill="#eeeeff" stroke="black" points="8,-8 8,-132 78,-132 78,-8 8,-8"/>
</a>
</g>
</g>
<!-- dir_97aefd0d527b934f1d99a682da8fe6a9 -->
<g id="node1" class="node">
<title>dir_97aefd0d527b934f1d99a682da8fe6a9</title>
<text text-anchor="middle" x="43" y="-103.5" font-family="Helvetica,sans-Serif" font-size="10.00">lib</text>
</g>
<!-- dir_1ea122f7b94457c2332c194612c8b8fe -->
<g id="node2" class="node">
<title>dir_1ea122f7b94457c2332c194612c8b8fe</title>
<g id="a_node2"><a xlink:href="dir_1ea122f7b94457c2332c194612c8b8fe.html" target="_top" xlink:title="common">
<polygon fill="white" stroke="black" points="70,-52 16,-52 16,-16 70,-16 70,-52"/>
<text text-anchor="middle" x="43" y="-31.5" font-family="Helvetica,sans-Serif" font-size="10.00">common</text>
</a>
</g>
</g>
<!-- dir_97aefd0d527b934f1d99a682da8fe6a9&#45;&gt;dir_1ea122f7b94457c2332c194612c8b8fe -->
<g id="edge1" class="edge">
<title>dir_97aefd0d527b934f1d99a682da8fe6a9&#45;&gt;dir_1ea122f7b94457c2332c194612c8b8fe</title>
<path fill="none" stroke="black" d="M43,-87.7C43,-79.98 43,-70.71 43,-62.11"/>
<polygon fill="black" stroke="black" points="46.5,-62.1 43,-52.1 39.5,-62.1 46.5,-62.1"/>
<g id="a_edge1&#45;headlabel"><a xlink:href="dir_000003_000004.html" target="_top" xlink:title="2">
<text text-anchor="middle" x="49.34" y="-63.2" font-family="Helvetica,sans-Serif" font-size="10.00">2</text>
</a>
</g>
</g>
<!-- dir_d44c64559bbebec7f509842c48db8b23 -->
<g id="node3" class="node">
<title>dir_d44c64559bbebec7f509842c48db8b23</title>
<g id="a_node3"><a xlink:href="dir_d44c64559bbebec7f509842c48db8b23.html" target="_top" xlink:title="include">
<polygon fill="white" stroke="red" points="142,-52 88,-52 88,-16 142,-16 142,-52"/>
<text text-anchor="middle" x="115" y="-31.5" font-family="Helvetica,sans-Serif" font-size="10.00">include</text>
</a>
</g>
</g>
<!-- dir_97aefd0d527b934f1d99a682da8fe6a9&#45;&gt;dir_d44c64559bbebec7f509842c48db8b23 -->
<g id="edge2" class="edge">
<title>dir_97aefd0d527b934f1d99a682da8fe6a9&#45;&gt;dir_d44c64559bbebec7f509842c48db8b23</title>
<path fill="none" stroke="black" d="M60.8,-87.7C69.6,-79.14 80.38,-68.66 90,-59.3"/>
<polygon fill="black" stroke="black" points="92.68,-61.58 97.41,-52.1 87.8,-56.57 92.68,-61.58"/>
<g id="a_edge2&#45;headlabel"><a xlink:href="dir_000003_000000.html" target="_top" xlink:title="2">
<text text-anchor="middle" x="92.08" y="-63.63" font-family="Helvetica,sans-Serif" font-size="10.00">2</text>
</a>
</g>
</g>
</g>
</svg>
