<?xml version="1.0" encoding="UTF-8" standalone="no"?>
<!DOCTYPE svg PUBLIC "-//W3C//DTD SVG 1.1//EN"
 "http://www.w3.org/Graphics/SVG/1.1/DTD/svg11.dtd">
<!-- Generated by graphviz version 2.43.0 (0)
 -->
<!-- Title: sink_impl.h Pages: 1 -->
<svg width="825pt" height="196pt"
 viewBox="0.00 0.00 825.00 196.00" xmlns="http://www.w3.org/2000/svg" xmlns:xlink="http://www.w3.org/1999/xlink">
<g id="graph0" class="graph" transform="scale(1 1) rotate(0) translate(4 192)">
<title>sink_impl.h</title>
<polygon fill="white" stroke="transparent" points="-4,4 -4,-192 821,-192 821,4 -4,4"/>
<!-- Node1 -->
<g id="node1" class="node">
<title>Node1</title>
<g id="a_node1"><a xlink:title=" ">
<polygon fill="#bfbfbf" stroke="black" points="447,-168.5 447,-187.5 513,-187.5 513,-168.5 447,-168.5"/>
<text text-anchor="middle" x="480" y="-175.5" font-family="Helvetica,sans-Serif" font-size="10.00">sink_impl.h</text>
</a>
</g>
</g>
<!-- Node2 -->
<g id="node2" class="node">
<title>Node2</title>
<g id="a_node2"><a xlink:href="device__handler_8h.html" target="_top" xlink:title=" ">
<polygon fill="white" stroke="black" points="280,-112.5 280,-131.5 410,-131.5 410,-112.5 280,-112.5"/>
<text text-anchor="middle" x="345" y="-119.5" font-family="Helvetica,sans-Serif" font-size="10.00">common/device_handler.h</text>
</a>
</g>
</g>
<!-- Node1&#45;&gt;Node2 -->
<g id="edge1" class="edge">
<title>Node1&#45;&gt;Node2</title>
<path fill="none" stroke="midnightblue" d="M458.61,-168.44C436.29,-159.52 401.1,-145.44 375.79,-135.32"/>
<polygon fill="midnightblue" stroke="midnightblue" points="376.88,-131.98 366.29,-131.52 374.28,-138.48 376.88,-131.98"/>
</g>
<!-- Node12 -->
<g id="node12" class="node">
<title>Node12</title>
<g id="a_node12"><a xlink:href="sink_8h.html" target="_top" xlink:title=" ">
<polygon fill="white" stroke="black" points="584.5,-112.5 584.5,-131.5 701.5,-131.5 701.5,-112.5 584.5,-112.5"/>
<text text-anchor="middle" x="643" y="-119.5" font-family="Helvetica,sans-Serif" font-size="10.00">gnuradio/limesdr/sink.h</text>
</a>
</g>
</g>
<!-- Node1&#45;&gt;Node12 -->
<g id="edge11" class="edge">
<title>Node1&#45;&gt;Node12</title>
<path fill="none" stroke="midnightblue" d="M505.83,-168.44C533.25,-159.36 576.78,-144.94 607.43,-134.78"/>
<polygon fill="midnightblue" stroke="midnightblue" points="608.9,-137.98 617.29,-131.52 606.7,-131.34 608.9,-137.98"/>
</g>
<!-- Node3 -->
<g id="node3" class="node">
<title>Node3</title>
<g id="a_node3"><a xlink:title=" ">
<polygon fill="white" stroke="#bfbfbf" points="0,-56.5 0,-75.5 68,-75.5 68,-56.5 0,-56.5"/>
<text text-anchor="middle" x="34" y="-63.5" font-family="Helvetica,sans-Serif" font-size="10.00">LimeSuite.h</text>
</a>
</g>
</g>
<!-- Node2&#45;&gt;Node3 -->
<g id="edge2" class="edge">
<title>Node2&#45;&gt;Node3</title>
<path fill="none" stroke="midnightblue" d="M290.48,-112.5C238.47,-104.24 157.68,-91.04 78.4,-76.21"/>
<polygon fill="midnightblue" stroke="midnightblue" points="78.72,-72.7 68.24,-74.3 77.42,-79.58 78.72,-72.7"/>
</g>
<!-- Node4 -->
<g id="node4" class="node">
<title>Node4</title>
<g id="a_node4"><a xlink:title=" ">
<polygon fill="white" stroke="#bfbfbf" points="86.5,-56.5 86.5,-75.5 149.5,-75.5 149.5,-56.5 86.5,-56.5"/>
<text text-anchor="middle" x="118" y="-63.5" font-family="Helvetica,sans-Serif" font-size="10.00">limeRFE.h</text>
</a>
</g>
</g>
<!-- Node2&#45;&gt;Node4 -->
<g id="edge3" class="edge">
<title>Node2&#45;&gt;Node4</title>
<path fill="none" stroke="midnightblue" d="M309.03,-112.44C268.41,-102.78 202.4,-87.08 159.59,-76.89"/>
<polygon fill="midnightblue" stroke="midnightblue" points="160.31,-73.47 149.77,-74.56 158.69,-80.28 160.31,-73.47"/>
</g>
<!-- Node5 -->
<g id="node5" class="node">
<title>Node5</title>
<g id="a_node5"><a xlink:title=" ">
<polygon fill="white" stroke="#bfbfbf" points="168,-56.5 168,-75.5 212,-75.5 212,-56.5 168,-56.5"/>
<text text-anchor="middle" x="190" y="-63.5" font-family="Helvetica,sans-Serif" font-size="10.00">cmath</text>
</a>
</g>
</g>
<!-- Node2&#45;&gt;Node5 -->
<g id="edge4" class="edge">
<title>Node2&#45;&gt;Node5</title>
<path fill="none" stroke="midnightblue" d="M320.44,-112.44C293.87,-103.19 251.39,-88.39 222.17,-78.21"/>
<polygon fill="midnightblue" stroke="midnightblue" points="223.03,-74.8 212.43,-74.82 220.72,-81.41 223.03,-74.8"/>
</g>
<!-- Node6 -->
<g id="node6" class="node">
<title>Node6</title>
<g id="a_node6"><a xlink:title=" ">
<polygon fill="white" stroke="#bfbfbf" points="230,-56.5 230,-75.5 284,-75.5 284,-56.5 230,-56.5"/>
<text text-anchor="middle" x="257" y="-63.5" font-family="Helvetica,sans-Serif" font-size="10.00">iostream</text>
</a>
</g>
</g>
<!-- Node2&#45;&gt;Node6 -->
<g id="edge5" class="edge">
<title>Node2&#45;&gt;Node6</title>
<path fill="none" stroke="midnightblue" d="M330.86,-112.32C317.13,-103.9 296.06,-90.97 279.94,-81.07"/>
<polygon fill="midnightblue" stroke="midnightblue" points="281.46,-77.9 271.1,-75.65 277.8,-83.87 281.46,-77.9"/>
</g>
<!-- Node7 -->
<g id="node7" class="node">
<title>Node7</title>
<g id="a_node7"><a xlink:title=" ">
<polygon fill="white" stroke="#bfbfbf" points="302.5,-56.5 302.5,-75.5 331.5,-75.5 331.5,-56.5 302.5,-56.5"/>
<text text-anchor="middle" x="317" y="-63.5" font-family="Helvetica,sans-Serif" font-size="10.00">list</text>
</a>
</g>
</g>
<!-- Node2&#45;&gt;Node7 -->
<g id="edge6" class="edge">
<title>Node2&#45;&gt;Node7</title>
<path fill="none" stroke="midnightblue" d="M340.38,-112.08C336.54,-104.69 330.98,-93.95 326.24,-84.81"/>
<polygon fill="midnightblue" stroke="midnightblue" points="329.25,-83.02 321.54,-75.75 323.03,-86.24 329.25,-83.02"/>
</g>
<!-- Node8 -->
<g id="node8" class="node">
<title>Node8</title>
<g id="a_node8"><a xlink:title=" ">
<polygon fill="white" stroke="#bfbfbf" points="349.5,-56.5 349.5,-75.5 396.5,-75.5 396.5,-56.5 349.5,-56.5"/>
<text text-anchor="middle" x="373" y="-63.5" font-family="Helvetica,sans-Serif" font-size="10.00">math.h</text>
</a>
</g>
</g>
<!-- Node2&#45;&gt;Node8 -->
<g id="edge7" class="edge">
<title>Node2&#45;&gt;Node8</title>
<path fill="none" stroke="midnightblue" d="M349.62,-112.08C353.46,-104.69 359.02,-93.95 363.76,-84.81"/>
<polygon fill="midnightblue" stroke="midnightblue" points="366.97,-86.24 368.46,-75.75 360.75,-83.02 366.97,-86.24"/>
</g>
<!-- Node9 -->
<g id="node9" class="node">
<title>Node9</title>
<g id="a_node9"><a xlink:title=" ">
<polygon fill="white" stroke="#bfbfbf" points="415,-56.5 415,-75.5 459,-75.5 459,-56.5 415,-56.5"/>
<text text-anchor="middle" x="437" y="-63.5" font-family="Helvetica,sans-Serif" font-size="10.00">mutex</text>
</a>
</g>
</g>
<!-- Node2&#45;&gt;Node9 -->
<g id="edge8" class="edge">
<title>Node2&#45;&gt;Node9</title>
<path fill="none" stroke="midnightblue" d="M359.78,-112.32C374.27,-103.82 396.57,-90.73 413.49,-80.8"/>
<polygon fill="midnightblue" stroke="midnightblue" points="415.4,-83.74 422.26,-75.65 411.86,-77.7 415.4,-83.74"/>
</g>
<!-- Node10 -->
<g id="node10" class="node">
<title>Node10</title>
<g id="a_node10"><a xlink:title=" ">
<polygon fill="white" stroke="#bfbfbf" points="477.5,-56.5 477.5,-75.5 518.5,-75.5 518.5,-56.5 477.5,-56.5"/>
<text text-anchor="middle" x="498" y="-63.5" font-family="Helvetica,sans-Serif" font-size="10.00">string</text>
</a>
</g>
</g>
<!-- Node2&#45;&gt;Node10 -->
<g id="edge9" class="edge">
<title>Node2&#45;&gt;Node10</title>
<path fill="none" stroke="midnightblue" d="M369.24,-112.44C395.93,-103.03 438.86,-87.87 467.73,-77.68"/>
<polygon fill="midnightblue" stroke="midnightblue" points="469.04,-80.93 477.3,-74.3 466.71,-74.33 469.04,-80.93"/>
</g>
<!-- Node11 -->
<g id="node11" class="node">
<title>Node11</title>
<g id="a_node11"><a xlink:title=" ">
<polygon fill="white" stroke="#bfbfbf" points="537,-56.5 537,-75.5 581,-75.5 581,-56.5 537,-56.5"/>
<text text-anchor="middle" x="559" y="-63.5" font-family="Helvetica,sans-Serif" font-size="10.00">vector</text>
</a>
</g>
</g>
<!-- Node2&#45;&gt;Node11 -->
<g id="edge10" class="edge">
<title>Node2&#45;&gt;Node11</title>
<path fill="none" stroke="midnightblue" d="M381.57,-112.48C416.57,-104.22 471.07,-91.09 526.97,-76.2"/>
<polygon fill="midnightblue" stroke="midnightblue" points="527.93,-79.57 536.68,-73.6 526.11,-72.81 527.93,-79.57"/>
</g>
<!-- Node13 -->
<g id="node13" class="node">
<title>Node13</title>
<g id="a_node13"><a xlink:title=" ">
<polygon fill="white" stroke="#bfbfbf" points="599,-56.5 599,-75.5 687,-75.5 687,-56.5 599,-56.5"/>
<text text-anchor="middle" x="643" y="-63.5" font-family="Helvetica,sans-Serif" font-size="10.00">gnuradio/block.h</text>
</a>
</g>
</g>
<!-- Node12&#45;&gt;Node13 -->
<g id="edge12" class="edge">
<title>Node12&#45;&gt;Node13</title>
<path fill="none" stroke="midnightblue" d="M643,-112.08C643,-105.01 643,-94.86 643,-85.99"/>
<polygon fill="midnightblue" stroke="midnightblue" points="646.5,-85.75 643,-75.75 639.5,-85.75 646.5,-85.75"/>
</g>
<!-- Node14 -->
<g id="node14" class="node">
<title>Node14</title>
<g id="a_node14"><a xlink:href="api_8h.html" target="_top" xlink:title=" ">
<polygon fill="white" stroke="black" points="705,-56.5 705,-75.5 817,-75.5 817,-56.5 705,-56.5"/>
<text text-anchor="middle" x="761" y="-63.5" font-family="Helvetica,sans-Serif" font-size="10.00">gnuradio/limesdr/api.h</text>
</a>
</g>
</g>
<!-- Node12&#45;&gt;Node14 -->
<g id="edge13" class="edge">
<title>Node12&#45;&gt;Node14</title>
<path fill="none" stroke="midnightblue" d="M661.7,-112.44C680.94,-103.64 711.15,-89.81 733.2,-79.72"/>
<polygon fill="midnightblue" stroke="midnightblue" points="734.75,-82.86 742.39,-75.52 731.84,-76.5 734.75,-82.86"/>
</g>
<!-- Node15 -->
<g id="node15" class="node">
<title>Node15</title>
<g id="a_node15"><a xlink:title=" ">
<polygon fill="white" stroke="#bfbfbf" points="708.5,-0.5 708.5,-19.5 813.5,-19.5 813.5,-0.5 708.5,-0.5"/>
<text text-anchor="middle" x="761" y="-7.5" font-family="Helvetica,sans-Serif" font-size="10.00">gnuradio/attributes.h</text>
</a>
</g>
</g>
<!-- Node14&#45;&gt;Node15 -->
<g id="edge14" class="edge">
<title>Node14&#45;&gt;Node15</title>
<path fill="none" stroke="midnightblue" d="M761,-56.08C761,-49.01 761,-38.86 761,-29.99"/>
<polygon fill="midnightblue" stroke="midnightblue" points="764.5,-29.75 761,-19.75 757.5,-29.75 764.5,-29.75"/>
</g>
</g>
</svg>
